HIERARCHY
ROOT Hips
{
	OFFSET 0.000000 0.000000 0.000000
	CHANNELS 6 Xposition Yposition Zposition Xrotation Yrotation Zrotation
	JOINT LeftUpLeg_virtual
	{
		OFFSET 0.000000 0.000000 0.000000
		CHANNELS 3 Xrotation Yrotation Zrotation
		JOINT LeftUpLeg
		{
			OFFSET 11.394100 -6.187798 -0.413800
			CHANNELS 3 Xrotation Yrotation Zrotation
			JOINT LeftLeg
			{
				OFFSET 0.430247 -32.302673 3.732800
				CHANNELS 3 Xrotation Yrotation Zrotation
				JOINT LeftFoot
				{
					OFFSET -0.430247 -48.264931 -6.423300
					CHANNELS 3 Xrotation Yrotation Zrotation
					JOINT LeftToeBase
					{
						OFFSET 4.230900 -16.068199 23.438400
						CHANNELS 3 Xrotation Yrotation Zrotation
						JOINT LeftToe_End
						{
							OFFSET 4.510700 0.695400 19.974600
							CHANNELS 3 Xrotation Yrotation Zrotation
							End Site
							{
								OFFSET 0 0 0
							}
						}
					}
				}
			}
		}
	}
	JOINT RightUpLeg_virtual
	{
		OFFSET 0.000000 0.000000 0.000000
		CHANNELS 3 Xrotation Yrotation Zrotation
		JOINT RightUpLeg
		{
			OFFSET -11.333700 -6.187798 -0.413800
			CHANNELS 3 Xrotation Yrotation Zrotation
			JOINT RightLeg
			{
				OFFSET -0.430392 -32.302628 3.733000
				CHANNELS 3 Xrotation Yrotation Zrotation
				JOINT RightFoot
				{
					OFFSET 0.430392 -48.264973 -6.423500
					CHANNELS 3 Xrotation Yrotation Zrotation
					JOINT RightToeBase
					{
						OFFSET -4.230900 -16.068199 23.438400
						CHANNELS 3 Xrotation Yrotation Zrotation
						JOINT RightToe_End
						{
							OFFSET -4.510700 0.695400 19.974600
							CHANNELS 3 Xrotation Yrotation Zrotation
							End Site
							{
								OFFSET 0 0 0
							}
						}
					}
				}
			}
		}
	}
	JOINT Spine_virtual
	{
		OFFSET 0.000000 0.000000 0.000000
		CHANNELS 3 Xrotation Yrotation Zrotation
		JOINT Spine
		{
			OFFSET -0.002400 12.777504 0.315300
			CHANNELS 3 Xrotation Yrotation Zrotation
			JOINT Spine1
			{
				OFFSET -0.002067 5.816869 0.032633
				CHANNELS 3 Xrotation Yrotation Zrotation
				JOINT Spine1_split
				{
					OFFSET -0.002067 5.816869 0.032633
					CHANNELS 3 Xrotation Yrotation Zrotation
					JOINT Spine2
					{
						OFFSET -0.002067 5.816869 0.032633
						CHANNELS 3 Xrotation Yrotation Zrotation
						JOINT Neck_virtual
						{
							OFFSET 0.000000 0.000000 0.000000
							CHANNELS 3 Xrotation Yrotation Zrotation
							JOINT Neck
							{
								OFFSET -0.003700 21.199493 -0.826900
								CHANNELS 3 Xrotation Yrotation Zrotation
								JOINT Head
								{
									OFFSET 0.000000 20.442200 4.834800
									CHANNELS 3 Xrotation Yrotation Zrotation
									JOINT HeadTop_End
									{
										OFFSET 0.000000 34.668396 4.968400
										CHANNELS 3 Xrotation Yrotation Zrotation
										End Site
										{
											OFFSET 0 0 0
										}
									}
								}
							}
						}
						JOINT LeftShoulder_virtual
						{
							OFFSET 0.000000 0.000000 0.000000
							CHANNELS 3 Xrotation Yrotation Zrotation
							JOINT LeftShoulder
							{
								OFFSET 3.288150 8.794197 -1.372250
								CHANNELS 3 Xrotation Yrotation Zrotation
								JOINT LeftShoulder_split
								{
									OFFSET 3.288150 8.794197 -1.372250
									CHANNELS 3 Xrotation Yrotation Zrotation
									JOINT LeftArm
									{
										OFFSET 11.953299 -2.279007 -0.146200
										CHANNELS 3 Xrotation Yrotation Zrotation
										JOINT LeftForeArm
										{
											OFFSET 18.448900 0.000000 0.000000
											CHANNELS 3 Xrotation Yrotation Zrotation
											JOINT LeftHand
											{
												OFFSET 29.527798 0.000000 0.000000
												CHANNELS 3 Xrotation Yrotation Zrotation
												End Site
												{
													OFFSET 0 0 0
												}
											}
										}
									}
								}
							}
						}
						JOINT RightShoulder_virtual
						{
							OFFSET 0.000000 0.000000 0.000000
							CHANNELS 3 Xrotation Yrotation Zrotation
							JOINT RightShoulder
							{
								OFFSET -3.249400 8.794197 -1.372250
								CHANNELS 3 Xrotation Yrotation Zrotation
								JOINT RightShoulder_split
								{
									OFFSET -3.249400 8.794197 -1.372250
									CHANNELS 3 Xrotation Yrotation Zrotation
									JOINT RightArm
									{
										OFFSET -11.953299 -2.279007 -0.146200
										CHANNELS 3 Xrotation Yrotation Zrotation
										JOINT RightForeArm
										{
											OFFSET -18.448900 0.000000 0.000000
											CHANNELS 3 Xrotation Yrotation Zrotation
											JOINT RightHand
											{
												OFFSET -29.527802 0.000000 0.000000
												CHANNELS 3 Xrotation Yrotation Zrotation
												End Site
												{
													OFFSET 0 0 0
												}
											}
										}
									}
								}
							}
						}
					}
				}
			}
		}
	}
}
MOTION
Frames: 11
Frame Time: 0.03333333
-4.091162 98.472816 -8.043961 0.000000 0.000000 0.000000 -8.718134 -0.591256 3.186272 -11.199681 8.361040 -3.133399 26.183081 -0.350752 -0.271596 -6.990804 4.004046 2.944885 -0.000002 0.000001 -0.000002 0.000000 0.000000 0.000000 -8.718134 -0.591256 3.186272 -16.293099 -12.977728 -16.470704 30.480529 0.463257 0.316160 -5.252236 -14.708792 4.501442 -0.000151 0.000020 0.000391 0.000000 0.000000 0.000000 -8.718134 -0.591256 3.186272 7.534184 1.447709 -4.253279 15.001682 3.208853 -3.005015 0.000000 0.000000 0.000000 0.000000 0.000000 0.000000 15.025231 3.101746 -2.981809 35.367184 0.454795 -4.927123 -0.614284 1.721699 -4.974586 0.000000 0.000000 0.000000 15.025231 3.101746 -2.981809 -2.107436 -21.664057 -27.014339 0.000000 0.000000 0.000000 -4.070707 -46.646487 -32.633554 4.425112 -22.863073 1.574467 0.000000 0.000000 0.000000 15.025231 3.101746 -2.981809 -2.505640 24.220851 26.971280 0.000000 0.000000 0.000000 -4.213945 20.673420 36.929279 27.080506 37.419232 -10.824385 0.000000 0.000000 0.000000 
-3.271439 99.016388 -7.774117 0.000000 0.000000 0.000000 -9.892247 -1.242155 3.641411 -7.546194 9.295541 -4.347131 23.131506 -0.311605 -0.258628 -6.304807 3.699065 3.507278 -0.000007 -0.000006 -0.000001 0.000000 0.000000 0.000000 -9.892247 -1.242155 3.641411 -13.895084 -12.981648 -17.306714 28.292023 0.429582 0.305710 -4.276726 -14.072391 5.142520 -0.000121 0.000005 0.000332 0.000000 0.000000 0.000000 -9.892247 -1.242155 3.641411 6.796345 1.604304 -4.565421 13.499552 3.300436 -3.157294 0.000000 0.000000 0.000000 0.000000 0.000000 0.000000 13.525420 3.199131 -3.135814 33.353422 1.110180 -4.334505 -1.596120 2.537176 -5.856432 0.000000 0.000000 0.000000 13.525420 3.199131 -3.135814 -1.205559 -20.666498 -24.364062 0.000000 0.000000 0.000000 1.602667 -41.933608 -31.598238 4.490926 -26.563550 0.875698 0.000000 0.000000 0.000000 13.525420 3.199131 -3.135814 -1.348470 22.309549 23.910460 0.000000 0.000000 0.000000 2.405176 20.579678 39.044831 30.735045 42.386088 -15.654503 0.000000 0.000000 0.000000 
-2.497900 99.182175 -7.629848 0.000000 0.000000 0.000000 -10.278185 -1.613306 4.004571 -5.921798 10.068956 -5.326905 21.747597 -0.295073 -0.252351 -6.055623 3.347905 4.066325 0.000006 0.000002 0.000001 0.000000 0.000000 0.000000 -10.278185 -1.613306 4.004571 -13.193248 -12.798710 -18.194043 27.471181 0.411532 0.300373 -3.718376 -13.671110 5.740057 -0.000133 0.000024 0.000348 0.000000 0.000000 0.000000 -10.278185 -1.613306 4.004571 6.096489 1.624035 -4.826656 12.086296 3.177757 -3.317954 0.000000 0.000000 0.000000 0.000000 0.000000 0.000000 12.112672 3.083688 -3.298395 30.904851 1.645484 -3.990197 -2.591300 2.961594 -5.738686 0.000000 0.000000 0.000000 12.112672 3.083688 -3.298395 0.051153 -19.230217 -20.982128 0.000000 0.000000 0.000000 4.852671 -36.960496 -32.152344 6.739162 -28.723852 1.369266 0.000000 0.000000 0.000000 12.112672 3.083688 -3.298395 -0.076869 20.530176 20.303504 0.000000 0.000000 0.000000 6.411386 20.396577 41.725185 31.669330 45.382413 -17.619824 0.000000 0.000000 0.000000 
-1.874393 99.141571 -7.447990 0.000000 0.000000 0.000000 -10.112945 -1.899542 4.307877 -5.561358 10.738165 -6.049363 21.435604 -0.294055 -0.251393 -6.177642 3.073188 4.524868 0.000003 -0.000004 0.000003 0.000000 0.000000 0.000000 -10.112945 -1.899542 4.307877 -13.497273 -12.423628 -18.987438 27.510634 0.403883 0.299165 -3.533997 -13.427521 6.247746 -0.000141 -0.000012 0.000352 0.000000 0.000000 0.000000 -10.112945 -1.899542 4.307877 5.410936 1.594224 -5.090972 10.707922 3.001653 -3.485507 0.000000 0.000000 0.000000 0.000000 0.000000 0.000000 10.734434 2.915114 -3.467962 27.895258 2.104591 -3.063927 -3.214823 3.297946 -5.636961 0.000000 0.000000 0.000000 10.734434 2.915114 -3.467962 1.434093 -17.670096 -17.056535 0.000000 0.000000 0.000000 5.145492 -32.111690 -34.387803 10.769985 -28.265307 2.445291 0.000000 0.000000 0.000000 10.734434 2.915114 -3.467962 1.094253 18.911723 16.755144 0.000000 0.000000 0.000000 7.613260 19.725248 44.846062 30.069700 45.972101 -16.293070 0.000000 0.000000 0.000000 
-1.476936 99.134392 -7.269382 0.000000 0.000000 0.000000 -9.802127 -1.956807 4.401333 -5.568311 11.017181 -6.411874 21.272237 -0.293824 -0.250710 -6.283491 2.921365 4.807018 -0.000004 -0.000004 0.000001 0.000000 0.000000 0.000000 -9.802127 -1.956807 4.401333 -13.777980 -12.461982 -19.424115 27.366188 0.399782 0.298080 -3.398598 -13.162023 6.564787 -0.000135 0.000005 0.000354 0.000000 0.000000 0.000000 -9.802127 -1.956807 4.401333 4.794889 1.559691 -5.275251 9.470097 2.843626 -3.500505 0.000000 0.000000 0.000000 0.000000 0.000000 0.000000 9.496680 2.764193 -3.484832 25.306221 2.182155 -2.251187 -4.197678 3.148813 -4.948924 0.000000 0.000000 0.000000 9.496680 2.764193 -3.484832 2.593123 -16.440861 -13.309862 0.000000 0.000000 0.000000 2.934867 -26.504190 -37.776130 15.935000 -26.144002 2.974177 0.000000 0.000000 0.000000 9.496680 2.764193 -3.484832 2.014496 17.544531 13.805264 0.000000 0.000000 0.000000 6.688017 17.694894 48.237753 29.938724 44.566127 -15.018285 0.000000 0.000000 0.000000 
-1.261446 99.186241 -7.065742 0.000000 0.000000 0.000000 -9.664473 -1.966352 4.362018 -5.372157 11.154324 -6.527361 21.017949 -0.290597 -0.249238 -6.353698 2.789147 4.939385 -0.000006 -0.000002 0.000002 0.000000 0.000000 0.000000 -9.664473 -1.966352 4.362018 -13.657849 -12.704608 -19.572028 26.990712 0.396387 0.296439 -3.294330 -12.914102 6.741030 -0.000129 -0.000010 0.000365 0.000000 0.000000 0.000000 -9.664473 -1.966352 4.362018 4.285714 1.539425 -5.316945 8.446682 2.706684 -3.378602 0.000000 0.000000 0.000000 0.000000 0.000000 0.000000 8.472753 2.634554 -3.364655 23.256137 2.152001 -1.806244 -5.081715 2.888460 -4.271964 0.000000 0.000000 0.000000 8.472753 2.634554 -3.364655 3.355886 -15.615672 -10.461814 0.000000 0.000000 0.000000 -1.058383 -19.744796 -41.581140 21.342931 -22.951160 2.567394 0.000000 0.000000 0.000000 8.472753 2.634554 -3.364655 2.645717 16.515082 11.796819 0.000000 0.000000 0.000000 4.550605 14.261696 51.339872 32.682817 41.841916 -15.349740 0.000000 0.000000 0.000000 
-1.261762 99.285713 -6.751686 0.000000 0.000000 0.000000 -9.572607 -2.233902 4.291915 -4.929350 11.504721 -6.447808 20.615994 -0.283240 -0.246823 -6.458692 2.621805 4.890088 -0.000012 0.000005 0.000001 0.000000 0.000000 0.000000 -9.572607 -2.233902 4.291915 -13.296928 -12.676174 -19.421747 26.566670 0.393626 0.294548 -3.303698 -12.809962 6.787070 -0.000128 -0.000000 0.000348 0.000000 0.000000 0.000000 -9.572607 -2.233902 4.291915 3.814347 1.582521 -5.267430 7.497056 2.702013 -3.211288 0.000000 0.000000 0.000000 0.000000 0.000000 0.000000 7.523183 2.637802 -3.199102 21.220185 2.001555 -1.462108 -5.215446 2.546555 -3.854552 0.000000 0.000000 0.000000 7.523183 2.637802 -3.199102 3.815184 -14.934810 -8.640226 0.000000 0.000000 0.000000 -6.097114 -12.176752 -45.226132 25.763851 -18.939099 1.259820 0.000000 0.000000 0.000000 7.523183 2.637802 -3.199102 3.077878 15.773285 10.617766 0.000000 0.000000 0.000000 1.805633 10.161665 53.931764 36.233395 38.396752 -15.976887 0.000000 0.000000 0.000000 
-1.369741 99.414726 -6.319698 0.000000 0.000000 0.000000 -9.509156 -2.624479 4.280150 -4.208865 12.116562 -6.337238 20.026128 -0.271880 -0.243420 -6.579606 2.264488 4.744051 -0.000002 -0.000003 -0.000002 0.000000 0.000000 0.000000 -9.509156 -2.624479 4.280150 -12.790063 -12.489173 -19.212607 26.138861 0.390605 0.292360 -3.415976 -12.788365 6.793493 -0.000117 0.000012 0.000317 0.000000 0.000000 0.000000 -9.509156 -2.624479 4.280150 3.427892 1.618246 -5.173936 6.721051 2.695538 -3.088565 0.000000 0.000000 0.000000 0.000000 0.000000 0.000000 6.746767 2.638541 -3.077893 19.012211 1.812321 -1.207071 -4.722063 2.198782 -3.608820 0.000000 0.000000 0.000000 6.746767 2.638541 -3.077893 4.159406 -14.212196 -7.458295 0.000000 0.000000 0.000000 -11.263981 -4.492028 -48.432260 28.132366 -14.686618 -0.543526 0.000000 0.000000 0.000000 6.746767 2.638541 -3.077893 3.432490 15.171023 9.854208 0.000000 0.000000 0.000000 -1.182992 6.262927 56.279960 38.298001 34.822449 -15.340970 0.000000 0.000000 0.000000 
-1.489927 99.516693 -5.768166 0.000000 0.000000 0.000000 -9.380128 -2.884334 4.312140 -3.568200 12.480023 -6.301917 19.537811 -0.261973 -0.240665 -6.800472 2.038884 4.583167 0.000001 0.000000 0.000001 0.000000 0.000000 0.000000 -9.380128 -2.884334 4.312140 -12.361982 -12.447951 -19.117705 25.833329 0.388945 0.290697 -3.665917 -12.723874 6.829592 -0.000145 0.000006 0.000369 0.000000 0.000000 0.000000 -9.380128 -2.884334 4.312140 3.111610 1.594821 -5.082847 6.090303 2.598104 -2.993250 0.000000 0.000000 0.000000 0.000000 0.000000 0.000000 6.114828 2.546950 -2.983725 16.880932 1.649110 -1.166462 -4.094941 1.826297 -3.194980 0.000000 0.000000 0.000000 6.114828 2.546950 -2.983725 4.492589 -13.551698 -6.484577 0.000000 0.000000 0.000000 -15.445044 2.410664 -51.121418 28.121033 -10.838622 -2.238071 0.000000 0.000000 0.000000 6.114828 2.546950 -2.983725 3.748567 14.654941 9.194410 0.000000 0.000000 0.000000 -3.992795 3.090964 58.567725 38.173804 31.501696 -13.169026 0.000000 0.000000 0.000000 
-1.542340 99.596451 -5.134167 0.000000 0.000000 0.000000 -9.241500 -3.077944 4.296930 -2.972422 12.748831 -6.271732 19.171311 -0.254814 -0.238409 -7.125869 1.856400 4.461700 -0.000003 -0.000001 0.000001 0.000000 0.000000 0.000000 -9.241500 -3.077944 4.296930 -11.904291 -12.552364 -19.071630 25.511540 0.386310 0.288904 -3.943294 -12.572532 6.930403 -0.000138 0.000002 0.000354 0.000000 0.000000 0.000000 -9.241500 -3.077944 4.296930 2.849584 1.538813 -5.004010 5.567970 2.448601 -2.873785 0.000000 0.000000 0.000000 0.000000 0.000000 0.000000 5.591091 2.401975 -2.865065 14.683406 1.504735 -1.197132 -3.553093 1.457537 -2.638619 0.000000 0.000000 0.000000 5.591091 2.401975 -2.865065 4.797209 -13.170871 -5.524609 0.000000 0.000000 0.000000 -17.650797 7.609661 -53.374127 26.431471 -7.778522 -3.513743 0.000000 0.000000 0.000000 5.591091 2.401975 -2.865065 3.991691 14.334988 8.542209 0.000000 0.000000 0.000000 -6.103257 0.770187 60.631391 36.348914 28.621771 -10.167020 0.000000 0.000000 0.000000 
-1.503863 99.622604 -4.537590 0.000000 0.000000 0.000000 -9.177321 -3.336351 4.339909 -2.368824 13.062739 -6.369772 18.931995 -0.250405 -0.237010 -7.499613 1.719592 4.413633 -0.000003 -0.000001 -0.000001 0.000000 0.000000 0.000000 -9.177321 -3.336351 4.339909 -11.530262 -12.470201 -19.160871 25.389534 0.383400 0.287798 -4.227831 -12.459762 7.102474 -0.000123 0.000002 0.000323 0.000000 0.000000 0.000000 -9.177321 -3.336351 4.339909 2.670224 1.497771 -4.962381 5.209907 2.330215 -2.780086 0.000000 0.000000 0.000000 0.000000 0.000000 0.000000 5.232072 2.286469 -2.771852 12.291735 1.314196 -1.229912 -3.063506 1.075622 -2.079371 0.000000 0.000000 0.000000 5.232072 2.286469 -2.771852 5.009832 -13.126244 -4.604681 0.000000 0.000000 0.000000 -17.447892 10.540887 -55.350094 24.991789 -5.856808 -4.350056 0.000000 0.000000 0.000000 5.232072 2.286469 -2.771852 4.140339 14.304440 7.884595 0.000000 0.000000 0.000000 -7.107085 -0.808144 62.248541 33.936157 26.405457 -7.386285 0.000000 0.000000 0.000000 
